<svg width="400" height="280" viewBox="0 0 400 280" xmlns="http://www.w3.org/2000/svg">
  <defs>
    <linearGradient id="g2" x1="0" y1="0" x2="1" y2="1">
      <stop offset="0%" stop-color="#0f172a"/>
      <stop offset="100%" stop-color="#7dd3fc"/>
    </linearGradient>
  </defs>
  <rect width="400" height="280" rx="28" fill="url(#g2)"/>
  <path d="M60 190h280c10 0 18-8 18-18v-6c0-10-8-18-18-18H60c-10 0-18 8-18 18v6c0 10 8 18 18 18Z" fill="rgba(255,255,255,0.16)"/>
  <rect x="90" y="60" width="220" height="18" rx="9" fill="rgba(255,255,255,0.25)"/>
  <circle cx="120" cy="120" r="40" fill="rgba(255,255,255,0.15)"/>
  <path d="M210 120a40 40 0 1 1 0 0" fill="none" stroke="#e0f2fe" stroke-width="6"/>
  <path d="M90 190h80" stroke="#f8fafc" stroke-width="8" stroke-linecap="round" opacity="0.8"/>
  <path d="M230 190h70" stroke="#bfdbfe" stroke-width="8" stroke-linecap="round" opacity="0.9"/>
  <text x="30" y="260" font-family="Inter, sans-serif" font-size="24" fill="#f8fafc" font-weight="700">Malnutrition Risk</text>
</svg>
