<svg width="400" height="280" viewBox="0 0 400 280" xmlns="http://www.w3.org/2000/svg">
  <defs>
    <linearGradient id="g3" x1="0" y1="0" x2="1" y2="1">
      <stop offset="0%" stop-color="#111827"/>
      <stop offset="100%" stop-color="#86efac"/>
    </linearGradient>
  </defs>
  <rect width="400" height="280" rx="28" fill="url(#g3)"/>
  <circle cx="110" cy="110" r="48" fill="rgba(255,255,255,0.15)"/>
  <path d="M80 180h240c12 0 22-10 22-22v-6c0-12-10-22-22-22H80c-12 0-22 10-22 22v6c0 12 10 22 22 22Z" fill="rgba(255,255,255,0.16)"/>
  <path d="M160 90c20 10 40 12 60 4" fill="none" stroke="#f0f9ff" stroke-width="6" stroke-linecap="round"/>
  <path d="M104 118c12-22 44-26 58-8" fill="none" stroke="#d9f99d" stroke-width="5"/>
  <path d="M120 190c20-42 70-52 110-30" fill="none" stroke="#f8fafc" stroke-width="8" stroke-linecap="round" opacity="0.85"/>
  <text x="24" y="260" font-family="Inter, sans-serif" font-size="24" fill="#f8fafc" font-weight="700">Parkinson’s AI</text>
</svg>
